# xmcd
#
# Track frame offsets: 
#        150
#        15189
#        32001
#        48158
#        63400
#        79440
#        99980
#        112752
#        128345
#        140983
#
# Disc length: 2372 seconds
#
# Revision: 0
# Processed by: cddbd v1.5.2PL0 Copyright (c) Steve Scherf et al.
# Submitted via: ExactAudioCopy v1.0b3
#
DISCID=7409420a
DTITLE=Clare Free - Be Who You Are
DYEAR=2010
DGENRE=Blues
TTITLE0=Let Me Down Easy
TTITLE1=I Won't Lie
TTITLE2=Fool To Pride
TTITLE3=My Everything
TTITLE4=Is This Love I Feel
TTITLE5=We Were Seventeen
TTITLE6=She's An Evil Woman
TTITLE7=Please Don't Say You Love Me
TTITLE8=Whenever You Need Me
TTITLE9=Time Of Our Lives
EXTD=
EXTT0=
EXTT1=
EXTT2=
EXTT3=
EXTT4=
EXTT5=
EXTT6=
EXTT7=
EXTT8=
EXTT9=
PLAYORDER=
